<svg xmlns="http://www.w3.org/2000/svg" viewBox="0 0 70.92 70.92"><defs><style>.cls-1{fill:#fff;}.cls-2{fill:#1f3248;}</style></defs><g id="Back_Button" data-name="Back Button"><rect class="cls-1" width="70.92" height="70.92"/><path class="cls-2" d="M57.26,31.83H22.38l8.39-8.4a3.42,3.42,0,0,0,1.06-2.5,3.68,3.68,0,0,0-3.64-3.64,3.4,3.4,0,0,0-2.5,1.06L11.23,32.8A3.49,3.49,0,0,0,10,35.46a3.3,3.3,0,0,0,1.17,2.63L25.69,52.57a3.43,3.43,0,0,0,2.5,1.06A3.68,3.68,0,0,0,31.83,50a3.42,3.42,0,0,0-1.06-2.5l-8.39-8.4H57.26a3.63,3.63,0,0,0,0-7.26Z"/></g></svg>