<svg xmlns="http://www.w3.org/2000/svg" viewBox="0 0 70.92 70.92"><defs><style>.cls-1{fill:#528dca;}.cls-2{font-size:10.32px;font-family:Montserrat-SemiBold, Montserrat;font-weight:600;}.cls-2,.cls-6{fill:#1f3248;}.cls-3{letter-spacing:-0.01em;}.cls-4{letter-spacing:-0.02em;}.cls-5{letter-spacing:-0.01em;}</style></defs><g id="Events"><g id="Layer_4" data-name="Layer 4"><rect class="cls-1" width="70.92" height="70.92"/></g><text class="cls-2" transform="translate(14.28 62.05)"><tspan class="cls-3">E</tspan><tspan class="cls-4" x="6.81" y="0">V</tspan><tspan x="14.18" y="0">EN</tspan><tspan class="cls-5" x="29.45" y="0">T</tspan><tspan x="35.59" y="0">S</tspan></text><path class="cls-6" d="M57.83,42.51V20.41c0-3.24-2.9-5.88-6.46-5.88H49.6v-.36c0-3.24-2.9-5.88-6.46-5.88H24.2c-3.56,0-6.46,2.64-6.46,5.88v22.1c0,3.24,2.9,5.88,6.46,5.88H26v.36c0,3.24,2.9,5.88,6.46,5.88H51.37C54.93,48.39,57.83,45.75,57.83,42.51Zm-8.85,4H32.43a4.16,4.16,0,0,1-4.34-4V20.41a4.16,4.16,0,0,1,4.34-4H51.37a4.17,4.17,0,0,1,4.35,4v22.1a4.17,4.17,0,0,1-4.35,4H49Z"/><path class="cls-6" d="M31.71,24.12H48.54a.84.84,0,1,0,0-1.67H31.71a.84.84,0,1,0,0,1.67Z"/><path class="cls-6" d="M34.37,29a.85.85,0,0,0,.84.84H51a.85.85,0,0,0,.84-.84.84.84,0,0,0-.84-.83H35.21A.84.84,0,0,0,34.37,29Z"/><path class="cls-6" d="M47.33,34.62a.84.84,0,0,0-.84-.83H31.71a.84.84,0,0,0-.84.83.85.85,0,0,0,.84.84H46.49A.85.85,0,0,0,47.33,34.62Z"/><path class="cls-6" d="M51.82,40.29a.85.85,0,0,0-.84-.84H37.13a.85.85,0,0,0-.84.84.84.84,0,0,0,.84.83H51A.84.84,0,0,0,51.82,40.29Z"/></g></svg>