<svg xmlns="http://www.w3.org/2000/svg" viewBox="0 0 70.92 70.92"><defs><style>.cls-1{fill:#ab5159;}.cls-2{font-size:10.32px;font-family:Montserrat-SemiBold, Montserrat;font-weight:600;}.cls-2,.cls-3{fill:#481f21;}</style></defs><g id="Off"><g id="Layer_8" data-name="Layer 8"><rect class="cls-1" width="70.92" height="70.92"/></g><text class="cls-2" transform="translate(26.94 62.05)">ON</text><g id="icons"><g id="exit2"><path class="cls-3" d="M35.46,24.34a4,4,0,0,0,4-4v-8a4,4,0,1,0-8,0v8A4,4,0,0,0,35.46,24.34Z"/><path class="cls-3" d="M49.67,14.13h0a2.73,2.73,0,0,0-2.2-.8,3.08,3.08,0,0,0-3,3,4.19,4.19,0,0,0,.8,2.2h0a13.61,13.61,0,0,1,4,9.81,14,14,0,0,1-28,0,13.45,13.45,0,0,1,4.2-9.81h0a3.21,3.21,0,0,0,1-2.2,3.08,3.08,0,0,0-3-3,4.19,4.19,0,0,0-2.2.8h0a20,20,0,1,0,28.42,0Z"/></g></g></g></svg>