<svg xmlns="http://www.w3.org/2000/svg" viewBox="0 0 70.92 70.92"><defs><style>.cls-1{fill:#1f3248;}</style></defs><g id="Sensor_Button" data-name="Sensor Button"><path class="cls-1" d="M35.46,44.19a7.59,7.59,0,1,0,7.59,7.59A7.59,7.59,0,0,0,35.46,44.19Z"/><path class="cls-1" d="M19.41,34.59a3.79,3.79,0,1,0,5.37,5.35,15.32,15.32,0,0,1,21.36,0,3.75,3.75,0,0,0,2.68,1.12,3.79,3.79,0,0,0,2.69-6.47A23.06,23.06,0,0,0,19.41,34.59Z"/><path class="cls-1" d="M62.18,22.75a37.39,37.39,0,0,0-52.87-.57l-.57.57a3.79,3.79,0,1,0,5.39,5.34c11.45-11.59,31.21-11.59,42.66,0a3.79,3.79,0,1,0,5.39-5.34Z"/></g></svg>