<svg xmlns="http://www.w3.org/2000/svg" viewBox="0 0 70.92 70.92"><defs><style>.cls-1{fill:#1f3248;}</style></defs><g id="Side_Events_Active" data-name="Side Events Active"><path class="cls-1" d="M60.27,53V25.65c0-4-3.58-7.29-8-7.29H50.08v-.43c0-4-3.59-7.28-8-7.28H18.65c-4.42,0-8,3.26-8,7.28V45.27c0,4,3.59,7.29,8,7.29h2.19V53c0,4,3.59,7.28,8,7.28H52.27C56.69,60.27,60.27,57,60.27,53Zm-11,4.9H28.84A5.15,5.15,0,0,1,23.46,53V25.65a5.15,5.15,0,0,1,5.38-4.9H52.27a5.16,5.16,0,0,1,5.39,4.9V53a5.16,5.16,0,0,1-5.39,4.9h-3Z"/><path class="cls-1" d="M27.94,30.24H48.77a1,1,0,1,0,0-2.07H27.94a1,1,0,1,0,0,2.07Z"/><path class="cls-1" d="M31.23,36.22a1,1,0,0,0,1.05,1H51.79a1,1,0,1,0,0-2.06H32.28A1,1,0,0,0,31.23,36.22Z"/><path class="cls-1" d="M47.27,43.23a1,1,0,0,0-1-1H27.94a1,1,0,1,0,0,2.07H46.23A1,1,0,0,0,47.27,43.23Z"/><path class="cls-1" d="M52.83,50.25a1,1,0,0,0-1-1H34.65a1,1,0,1,0,0,2.06H51.79A1,1,0,0,0,52.83,50.25Z"/></g></svg>