<svg id="Options" xmlns="http://www.w3.org/2000/svg" viewBox="0 0 70.92 70.92"><defs><style>.cls-1{fill:#528dca;}.cls-2,.cls-3{fill:#1f3248;}.cls-3{font-size:10.32px;font-family:Montserrat-SemiBold, Montserrat;font-weight:600;}.cls-4{letter-spacing:-0.03em;}</style></defs><g id="Layer_2" data-name="Layer 2"><rect class="cls-1" width="70.92" height="70.92"/></g><g id="icons"><path id="settings" class="cls-2" d="M52.52,32.35l-2-1.17a3.44,3.44,0,0,1,0-5.85l2-1.17a3.18,3.18,0,0,0,1.17-4.52L52,16.8a3.18,3.18,0,0,0-4.52-1.17l-2,1.17a3.34,3.34,0,0,1-5-2.85V11.61a3.35,3.35,0,0,0-3.35-3.34H33.79a3.35,3.35,0,0,0-3.35,3.34v2.18a3.34,3.34,0,0,1-5,2.84l-2-1A3.24,3.24,0,0,0,18.9,16.8l-1.67,2.84a3.65,3.65,0,0,0,1.17,4.69l2,1.17a3.29,3.29,0,0,1,0,5.68l-2,1.17a3.18,3.18,0,0,0-1.17,4.52l1.67,2.84a3.17,3.17,0,0,0,4.52,1.17l2-1a3.34,3.34,0,0,1,5,2.84v2.35a3.35,3.35,0,0,0,3.35,3.34h3.34a3.35,3.35,0,0,0,3.35-3.34V42.89a3.34,3.34,0,0,1,5-2.84l2,1.17A3.25,3.25,0,0,0,52,40.05l1.67-2.85A3.81,3.81,0,0,0,52.52,32.35ZM35.46,35a6.69,6.69,0,1,1,6.69-6.69A6.71,6.71,0,0,1,35.46,35Z"/></g><text class="cls-3" transform="translate(10.81 62.04)">O<tspan class="cls-4" x="8.69" y="0">P</tspan><tspan x="15.87" y="0">TIONS</tspan></text></svg>