<svg xmlns="http://www.w3.org/2000/svg" viewBox="0 0 70.92 70.92"><defs><style>.cls-1{fill:#3e8074;}.cls-2{fill:#fff;stroke:#fff;stroke-miterlimit:10;stroke-width:1.89px;}</style></defs><g id="Refresh_Button_Hover" data-name="Refresh Button Hover"><rect class="cls-1" width="70.92" height="70.92"/><g id="_1" data-name=" 1"><path class="cls-2" d="M17.43,45.75a1.76,1.76,0,0,1-1.58-1A22.07,22.07,0,0,1,51.18,19.29a1.76,1.76,0,0,1-2.49,2.49A18.54,18.54,0,0,0,19,43.2a1.76,1.76,0,0,1-.78,2.37,1.82,1.82,0,0,1-.79.18Z"/><path class="cls-2" d="M36.8,58.07a22,22,0,0,1-15.61-6.46,1.76,1.76,0,1,1,2.5-2.49A18.54,18.54,0,0,0,53.37,27.7a1.76,1.76,0,1,1,3.15-1.58,22.07,22.07,0,0,1-19.72,32Z"/><path class="cls-2" d="M42.42,23.05a1.76,1.76,0,0,1-.17-3.52L47.83,19l-1.12-5.6a1.76,1.76,0,0,1,3.46-.69l1.49,7.51a1.75,1.75,0,0,1-1.38,2.08l-.17,0L42.6,23Z"/><path class="cls-2" d="M23.94,59.64a1.75,1.75,0,0,1-1.73-1.42l-1.5-7.51a1.76,1.76,0,0,1,1.38-2.07l.17,0,7.51-.75a1.76,1.76,0,1,1,.36,3.51l-5.58.56,1.12,5.6a1.77,1.77,0,0,1-1.39,2.08A2,2,0,0,1,23.94,59.64Z"/></g></g></svg>