<svg xmlns="http://www.w3.org/2000/svg" viewBox="0 0 70.92 70.92"><defs><style>.cls-1{fill:#fff;}.cls-2{fill:#1f3248;}</style></defs><g id="Side_Options_Active" data-name="Side Options Active"><g id="Layer_10" data-name="Layer 10"><rect class="cls-1" width="70.92" height="70.92"/></g><g id="icons"><path id="settings" class="cls-2" d="M56.8,40.48,54.29,39a4.31,4.31,0,0,1,0-7.33l2.51-1.46a4,4,0,0,0,1.47-5.65L56.18,21a4,4,0,0,0-5.65-1.46L48,21a4.17,4.17,0,0,1-6.27-3.56V14.54a4.2,4.2,0,0,0-4.19-4.19H33.37a4.2,4.2,0,0,0-4.19,4.19v2.72a4.17,4.17,0,0,1-6.27,3.55l-2.52-1.25A4.06,4.06,0,0,0,14.74,21l-2.09,3.56a4.57,4.57,0,0,0,1.47,5.86l2.51,1.46a4.13,4.13,0,0,1,0,7.12l-2.51,1.46a4,4,0,0,0-1.47,5.65l2.09,3.56a4,4,0,0,0,5.65,1.46l2.52-1.25a4.17,4.17,0,0,1,6.27,3.56v2.92a4.2,4.2,0,0,0,4.19,4.19h4.18a4.2,4.2,0,0,0,4.19-4.19V53.66A4.17,4.17,0,0,1,48,50.11l2.52,1.46a4.06,4.06,0,0,0,5.65-1.46l2.09-3.56A4.78,4.78,0,0,0,56.8,40.48ZM35.46,43.83a8.37,8.37,0,1,1,8.37-8.37A8.4,8.4,0,0,1,35.46,43.83Z"/></g></g></svg>